<mxfile host="app.diagrams.net" modified="2024-03-22T08:05:57.851Z" agent="Mozilla/5.0 (Macintosh; Intel Mac OS X 10_15_7) AppleWebKit/537.36 (KHTML, like Gecko) Chrome/123.0.0.0 Safari/537.36" version="24.0.6" etag="VqsPDSUysoBKQtqeI4M9" type="github">
  <diagram name="페이지-1" id="41XBhGpsECXNjPxRQA-k">
    <mxGraphModel>
      <root>
        <mxCell id="0" />
        <mxCell id="1" parent="0" />
      </root>
    </mxGraphModel>
  </diagram>
</mxfile>
